<mxfile host="65bd71144e">
    <diagram id="Y2JU5PtvBHqM-OWnfybh" name="Page-1">
        <mxGraphModel dx="2536" dy="2047" grid="1" gridSize="10" guides="1" tooltips="1" connect="1" arrows="1" fold="1" page="1" pageScale="1" pageWidth="850" pageHeight="1100" math="0" shadow="0">
            <root>
                <mxCell id="0"/>
                <mxCell id="1" parent="0"/>
                <mxCell id="2" value="" style="rounded=0;whiteSpace=wrap;html=1;strokeWidth=2;fontSize=16;fillColor=#FFFFFF;strokeColor=none;" parent="1" vertex="1">
                    <mxGeometry x="-830" y="-1070" width="1370" height="320" as="geometry"/>
                </mxCell>
                <mxCell id="3" value="" style="rounded=0;whiteSpace=wrap;html=1;strokeWidth=2;fontSize=16;fillColor=#F7F7F7;" parent="1" vertex="1">
                    <mxGeometry x="-730" y="-1040" width="1260" height="270" as="geometry"/>
                </mxCell>
                <mxCell id="4" value="" style="edgeStyle=none;html=1;fontSize=14;" parent="1" source="5" edge="1">
                    <mxGeometry relative="1" as="geometry">
                        <mxPoint x="-550" y="-955" as="targetPoint"/>
                    </mxGeometry>
                </mxCell>
                <mxCell id="5" value="" style="rounded=0;whiteSpace=wrap;html=1;dashed=1;strokeWidth=2;" parent="1" vertex="1">
                    <mxGeometry x="-685" y="-1010" width="105" height="110" as="geometry"/>
                </mxCell>
                <mxCell id="6" value="&lt;meta charset=&quot;utf-8&quot;&gt;&lt;span style=&quot;color: rgba(0, 0, 0, 0); font-family: monospace; font-size: 0px; font-style: normal; font-variant-ligatures: normal; font-variant-caps: normal; font-weight: 400; letter-spacing: normal; orphans: 2; text-align: start; text-indent: 0px; text-transform: none; widows: 2; word-spacing: 0px; -webkit-text-stroke-width: 0px; background-color: rgb(251, 251, 251); text-decoration-thickness: initial; text-decoration-style: initial; text-decoration-color: initial; float: none; display: inline !important;&quot;&gt;&amp;nbsp;&lt;/span&gt;" style="rounded=0;whiteSpace=wrap;html=1;strokeWidth=2;" parent="1" vertex="1">
                    <mxGeometry x="-670" y="-990" width="50" height="60" as="geometry"/>
                </mxCell>
                <mxCell id="7" value="&lt;meta charset=&quot;utf-8&quot;&gt;&lt;span style=&quot;color: rgba(0, 0, 0, 0); font-family: monospace; font-size: 0px; font-style: normal; font-variant-ligatures: normal; font-variant-caps: normal; font-weight: 400; letter-spacing: normal; orphans: 2; text-align: start; text-indent: 0px; text-transform: none; widows: 2; word-spacing: 0px; -webkit-text-stroke-width: 0px; background-color: rgb(251, 251, 251); text-decoration-thickness: initial; text-decoration-style: initial; text-decoration-color: initial; float: none; display: inline !important;&quot;&gt;&amp;nbsp;&lt;/span&gt;" style="rounded=0;whiteSpace=wrap;html=1;strokeWidth=2;" parent="1" vertex="1">
                    <mxGeometry x="-660" y="-980" width="50" height="60" as="geometry"/>
                </mxCell>
                <mxCell id="8" value="&lt;meta charset=&quot;utf-8&quot;&gt;&lt;span style=&quot;color: rgba(0, 0, 0, 0); font-family: monospace; font-size: 0px; font-style: normal; font-variant-ligatures: normal; font-variant-caps: normal; font-weight: 400; letter-spacing: normal; orphans: 2; text-align: start; text-indent: 0px; text-transform: none; widows: 2; word-spacing: 0px; -webkit-text-stroke-width: 0px; background-color: rgb(251, 251, 251); text-decoration-thickness: initial; text-decoration-style: initial; text-decoration-color: initial; float: none; display: inline !important;&quot;&gt;&amp;nbsp;&lt;/span&gt;" style="rounded=0;whiteSpace=wrap;html=1;strokeWidth=2;" parent="1" vertex="1">
                    <mxGeometry x="-650" y="-970" width="50" height="60" as="geometry"/>
                </mxCell>
                <mxCell id="9" value="" style="edgeStyle=none;html=1;fontSize=14;" parent="1" source="10" target="12" edge="1">
                    <mxGeometry relative="1" as="geometry"/>
                </mxCell>
                <mxCell id="10" value="" style="shape=umlActor;verticalLabelPosition=bottom;verticalAlign=top;html=1;outlineConnect=0;strokeWidth=2;" parent="1" vertex="1">
                    <mxGeometry x="-820" y="-880" width="30" height="60" as="geometry"/>
                </mxCell>
                <mxCell id="11" value="" style="edgeStyle=none;html=1;fontSize=14;entryX=0;entryY=0.5;entryDx=0;entryDy=0;" parent="1" source="12" target="37" edge="1">
                    <mxGeometry relative="1" as="geometry">
                        <mxPoint x="-400" y="-850" as="targetPoint"/>
                    </mxGeometry>
                </mxCell>
                <mxCell id="12" value="Question" style="rounded=0;whiteSpace=wrap;html=1;strokeWidth=2;fontSize=14;" parent="1" vertex="1">
                    <mxGeometry x="-685" y="-880" width="105" height="60" as="geometry"/>
                </mxCell>
                <mxCell id="13" value="" style="edgeStyle=none;html=1;fontSize=14;" parent="1" source="14" target="15" edge="1">
                    <mxGeometry relative="1" as="geometry"/>
                </mxCell>
                <mxCell id="14" value="Large&lt;br&gt;Language&lt;br&gt;Model&lt;br&gt;(LLM)" style="rounded=0;whiteSpace=wrap;html=1;strokeWidth=2;fontSize=14;" parent="1" vertex="1">
                    <mxGeometry x="140" y="-1010" width="120" height="190" as="geometry"/>
                </mxCell>
                <mxCell id="15" value="Answer" style="rounded=0;whiteSpace=wrap;html=1;strokeWidth=2;fontSize=14;" parent="1" vertex="1">
                    <mxGeometry x="290" y="-944" width="120" height="60" as="geometry"/>
                </mxCell>
                <mxCell id="16" value="A" style="ellipse;whiteSpace=wrap;html=1;aspect=fixed;strokeWidth=2;fontSize=16;fontStyle=1;fillColor=#0050ef;fontColor=#ffffff;strokeColor=#001DBC;" parent="1" vertex="1">
                    <mxGeometry x="-710" y="-1000" width="30" height="30" as="geometry"/>
                </mxCell>
                <mxCell id="17" value="C" style="ellipse;whiteSpace=wrap;html=1;aspect=fixed;strokeWidth=2;fontSize=16;fontStyle=1;fillColor=#0050ef;fontColor=#ffffff;strokeColor=#001DBC;" parent="1" vertex="1">
                    <mxGeometry x="-710" y="-890" width="30" height="30" as="geometry"/>
                </mxCell>
                <mxCell id="18" value="B" style="ellipse;whiteSpace=wrap;html=1;aspect=fixed;strokeWidth=2;fontSize=16;fontStyle=1;fillColor=#0050ef;fontColor=#ffffff;strokeColor=#001DBC;" parent="1" vertex="1">
                    <mxGeometry x="130" y="-1010" width="30" height="30" as="geometry"/>
                </mxCell>
                <mxCell id="19" value="Your computer" style="text;html=1;strokeColor=none;fillColor=none;align=center;verticalAlign=middle;whiteSpace=wrap;rounded=0;strokeWidth=2;fontSize=16;" parent="1" vertex="1">
                    <mxGeometry x="-730" y="-1070" width="120" height="30" as="geometry"/>
                </mxCell>
                <mxCell id="20" value="" style="edgeStyle=none;html=1;fontSize=14;exitX=1;exitY=0.5;exitDx=0;exitDy=0;" parent="1" edge="1">
                    <mxGeometry relative="1" as="geometry">
                        <mxPoint x="140" y="-898" as="targetPoint"/>
                        <mxPoint x="110" y="-898" as="sourcePoint"/>
                    </mxGeometry>
                </mxCell>
                <mxCell id="21" value="Embedding" style="rounded=0;whiteSpace=wrap;html=1;fontSize=14;strokeWidth=2;fillColor=default;strokeColor=default;fontStyle=0" parent="1" vertex="1">
                    <mxGeometry x="-450" y="-974" width="90" height="40" as="geometry"/>
                </mxCell>
                <mxCell id="22" value="" style="rounded=0;whiteSpace=wrap;html=1;strokeWidth=2;fontSize=14;" parent="1" vertex="1">
                    <mxGeometry x="-550" y="-976" width="50" height="20" as="geometry"/>
                </mxCell>
                <mxCell id="23" value="" style="rounded=0;whiteSpace=wrap;html=1;strokeWidth=2;fontSize=14;" parent="1" vertex="1">
                    <mxGeometry x="-550" y="-966" width="50" height="20" as="geometry"/>
                </mxCell>
                <mxCell id="24" value="" style="rounded=0;whiteSpace=wrap;html=1;strokeWidth=2;fontSize=14;" parent="1" vertex="1">
                    <mxGeometry x="-550" y="-956" width="50" height="20" as="geometry"/>
                </mxCell>
                <mxCell id="25" value="" style="rounded=0;whiteSpace=wrap;html=1;strokeWidth=2;fontSize=14;" parent="1" vertex="1">
                    <mxGeometry x="-550" y="-946" width="50" height="10" as="geometry"/>
                </mxCell>
                <mxCell id="26" value="" style="rounded=0;whiteSpace=wrap;html=1;strokeWidth=2;fontSize=14;" parent="1" vertex="1">
                    <mxGeometry x="-543" y="-970" width="50" height="20" as="geometry"/>
                </mxCell>
                <mxCell id="27" value="" style="rounded=0;whiteSpace=wrap;html=1;strokeWidth=2;fontSize=14;" parent="1" vertex="1">
                    <mxGeometry x="-543" y="-960" width="50" height="20" as="geometry"/>
                </mxCell>
                <mxCell id="28" value="" style="rounded=0;whiteSpace=wrap;html=1;strokeWidth=2;fontSize=14;" parent="1" vertex="1">
                    <mxGeometry x="-543" y="-950" width="50" height="20" as="geometry"/>
                </mxCell>
                <mxCell id="29" value="" style="rounded=0;whiteSpace=wrap;html=1;strokeWidth=2;fontSize=14;" parent="1" vertex="1">
                    <mxGeometry x="-543" y="-940" width="50" height="10" as="geometry"/>
                </mxCell>
                <mxCell id="30" value="" style="edgeStyle=none;html=1;" parent="1" source="31" target="21" edge="1">
                    <mxGeometry relative="1" as="geometry"/>
                </mxCell>
                <mxCell id="31" value="" style="rounded=0;whiteSpace=wrap;html=1;strokeWidth=2;fontSize=14;" parent="1" vertex="1">
                    <mxGeometry x="-534" y="-964" width="50" height="20" as="geometry"/>
                </mxCell>
                <mxCell id="32" value="" style="rounded=0;whiteSpace=wrap;html=1;strokeWidth=2;fontSize=14;" parent="1" vertex="1">
                    <mxGeometry x="-534" y="-954" width="50" height="20" as="geometry"/>
                </mxCell>
                <mxCell id="33" value="" style="rounded=0;whiteSpace=wrap;html=1;strokeWidth=2;fontSize=14;" parent="1" vertex="1">
                    <mxGeometry x="-534" y="-944" width="50" height="20" as="geometry"/>
                </mxCell>
                <mxCell id="34" value="" style="rounded=0;whiteSpace=wrap;html=1;strokeWidth=2;fontSize=14;" parent="1" vertex="1">
                    <mxGeometry x="-534" y="-934" width="50" height="10" as="geometry"/>
                </mxCell>
                <mxCell id="35" value="D" style="ellipse;whiteSpace=wrap;html=1;aspect=fixed;strokeWidth=2;fontSize=16;fontStyle=1;fillColor=#0050ef;fontColor=#ffffff;strokeColor=#001DBC;" parent="1" vertex="1">
                    <mxGeometry x="-540" y="-1010" width="30" height="30" as="geometry"/>
                </mxCell>
                <mxCell id="36" value="" style="edgeStyle=none;html=1;exitX=1;exitY=0.5;exitDx=0;exitDy=0;entryX=-0.022;entryY=0.801;entryDx=0;entryDy=0;entryPerimeter=0;" parent="1" source="37" target="39" edge="1">
                    <mxGeometry relative="1" as="geometry"/>
                </mxCell>
                <mxCell id="37" value="Embedding" style="rounded=0;whiteSpace=wrap;html=1;fontSize=14;strokeWidth=2;fillColor=default;strokeColor=default;fontStyle=0" parent="1" vertex="1">
                    <mxGeometry x="-450" y="-870" width="90" height="40" as="geometry"/>
                </mxCell>
                <mxCell id="38" value="" style="edgeStyle=none;html=1;" parent="1" source="39" target="41" edge="1">
                    <mxGeometry relative="1" as="geometry"/>
                </mxCell>
                <mxCell id="39" value="Similarity search" style="rounded=0;whiteSpace=wrap;html=1;fontSize=14;strokeWidth=2;fillColor=default;strokeColor=default;fontStyle=0" parent="1" vertex="1">
                    <mxGeometry x="-220" y="-976" width="90" height="156" as="geometry"/>
                </mxCell>
                <mxCell id="40" value="" style="edgeStyle=none;html=1;" parent="1" source="41" target="45" edge="1">
                    <mxGeometry relative="1" as="geometry"/>
                </mxCell>
                <mxCell id="41" value="Relevant chunks" style="rounded=0;whiteSpace=wrap;html=1;fontSize=14;strokeWidth=2;fontStyle=0" parent="1" vertex="1">
                    <mxGeometry x="-104" y="-918" width="90" height="40" as="geometry"/>
                </mxCell>
                <mxCell id="42" value="E" style="ellipse;whiteSpace=wrap;html=1;aspect=fixed;strokeWidth=2;fontSize=16;fontStyle=1;fillColor=#0050ef;fontColor=#ffffff;strokeColor=#001DBC;" parent="1" vertex="1">
                    <mxGeometry x="-230" y="-996" width="30" height="30" as="geometry"/>
                </mxCell>
                <mxCell id="43" value="F" style="ellipse;whiteSpace=wrap;html=1;aspect=fixed;strokeWidth=2;fontSize=16;fontStyle=1;fillColor=#0050ef;fontColor=#ffffff;strokeColor=#001DBC;" parent="1" vertex="1">
                    <mxGeometry x="-455" y="-1000" width="30" height="30" as="geometry"/>
                </mxCell>
                <mxCell id="44" value="" style="edgeStyle=none;html=1;exitX=1;exitY=0.5;exitDx=0;exitDy=0;startArrow=none;entryX=0;entryY=0.609;entryDx=0;entryDy=0;entryPerimeter=0;" parent="1" source="49" target="39" edge="1">
                    <mxGeometry relative="1" as="geometry">
                        <mxPoint x="-350" y="-840" as="sourcePoint"/>
                        <mxPoint x="-220" y="-890" as="targetPoint"/>
                    </mxGeometry>
                </mxCell>
                <mxCell id="45" value="Prompt" style="rounded=0;whiteSpace=wrap;html=1;fontSize=14;strokeWidth=2;fontStyle=0;fillColor=default;strokeColor=default;" parent="1" vertex="1">
                    <mxGeometry x="20" y="-918" width="90" height="40" as="geometry"/>
                </mxCell>
                <mxCell id="46" value="" style="edgeStyle=none;html=1;fontSize=14;exitX=0.5;exitY=1;exitDx=0;exitDy=0;" parent="1" source="12" edge="1">
                    <mxGeometry relative="1" as="geometry">
                        <mxPoint x="-110" y="-900" as="targetPoint"/>
                        <mxPoint x="-570" y="-840" as="sourcePoint"/>
                        <Array as="points">
                            <mxPoint x="-632" y="-800"/>
                            <mxPoint x="-110" y="-800"/>
                        </Array>
                    </mxGeometry>
                </mxCell>
                <mxCell id="47" value="G" style="ellipse;whiteSpace=wrap;html=1;aspect=fixed;strokeWidth=2;fontSize=16;fontStyle=1;fillColor=#0050ef;fontColor=#ffffff;strokeColor=#001DBC;" parent="1" vertex="1">
                    <mxGeometry x="10" y="-940" width="30" height="30" as="geometry"/>
                </mxCell>
                <mxCell id="49" value="Vector index" style="rounded=0;whiteSpace=wrap;html=1;fontSize=14;strokeWidth=2;fillColor=#fff2cc;strokeColor=#d6b656;fontStyle=1" parent="1" vertex="1">
                    <mxGeometry x="-340" y="-900" width="90" height="40" as="geometry"/>
                </mxCell>
                <mxCell id="50" value="" style="edgeStyle=none;html=1;exitX=1;exitY=0.5;exitDx=0;exitDy=0;entryX=0;entryY=0.5;entryDx=0;entryDy=0;entryPerimeter=0;endArrow=none;" parent="1" source="21" target="48" edge="1">
                    <mxGeometry relative="1" as="geometry">
                        <mxPoint x="-360" y="-954" as="sourcePoint"/>
                        <mxPoint x="-220" y="-954.94" as="targetPoint"/>
                    </mxGeometry>
                </mxCell>
                <mxCell id="52" value="" style="edgeStyle=none;html=1;" parent="1" source="48" target="49" edge="1">
                    <mxGeometry relative="1" as="geometry"/>
                </mxCell>
                <mxCell id="48" value="Vector store" style="shape=cylinder3;whiteSpace=wrap;html=1;boundedLbl=1;backgroundOutline=1;size=15;fillColor=#fff2cc;fontStyle=1;fontSize=14;rounded=0;strokeWidth=2;strokeColor=#d6b656;" parent="1" vertex="1">
                    <mxGeometry x="-340" y="-982" width="90" height="56" as="geometry"/>
                </mxCell>
                <mxCell id="53" value="H" style="ellipse;whiteSpace=wrap;html=1;aspect=fixed;strokeWidth=2;fontSize=16;fontStyle=1;fillColor=#0050ef;fontColor=#ffffff;strokeColor=#001DBC;" parent="1" vertex="1">
                    <mxGeometry x="-350" y="-994" width="30" height="30" as="geometry"/>
                </mxCell>
                <mxCell id="54" value="I" style="ellipse;whiteSpace=wrap;html=1;aspect=fixed;strokeWidth=2;fontSize=16;fontStyle=1;fillColor=#0050ef;fontColor=#ffffff;strokeColor=#001DBC;" parent="1" vertex="1">
                    <mxGeometry x="-350" y="-924" width="30" height="30" as="geometry"/>
                </mxCell>
            </root>
        </mxGraphModel>
    </diagram>
</mxfile>